<svg xmlns="http://www.w3.org/2000/svg" width="35.922" height="39.754" viewBox="0 0 35.922 39.754">
  <path id="add-post" d="M31.738,1.25a1.437,1.437,0,0,1,1.437,1.437V7h4.311a1.437,1.437,0,1,1,0,2.874H33.175v4.311a1.437,1.437,0,1,1-2.874,0V9.871H25.99A1.437,1.437,0,1,1,25.99,7H30.3V2.687A1.437,1.437,0,0,1,31.738,1.25Zm5.748,32.09V19.93a1.916,1.916,0,0,0-1.916-1.916H29.822a7.663,7.663,0,0,1-7.663-7.663V4.6a1.916,1.916,0,0,0-1.916-1.916H10.663A7.663,7.663,0,0,0,3,10.35V33.34A7.663,7.663,0,0,0,10.663,41H29.822A7.663,7.663,0,0,0,37.485,33.34ZM11.142,12.266a1.437,1.437,0,0,1,1.437-1.437h5.748a1.437,1.437,0,0,1,0,2.874H12.579A1.437,1.437,0,0,1,11.142,12.266Zm1.437,8.142a1.437,1.437,0,0,0,0,2.874H27.906a1.437,1.437,0,1,0,0-2.874ZM11.142,31.425a1.437,1.437,0,0,1,1.437-1.437H27.906a1.437,1.437,0,1,1,0,2.874H12.579A1.437,1.437,0,0,1,11.142,31.425Z" transform="translate(-3 -1.25)" fill="#fff" fill-rule="evenodd"/>
</svg>
