<svg id="invite" xmlns="http://www.w3.org/2000/svg" width="41.065" height="41.065" viewBox="0 0 41.065 41.065">
  <ellipse id="Ellipse_30" data-name="Ellipse 30" cx="10" cy="10.5" rx="10" ry="10.5" transform="translate(14.065)" fill="#fff"/>
  <path id="Path_2608" data-name="Path 2608" d="M26.244,14H15.977A11.991,11.991,0,0,0,4,25.977V29.4A1.711,1.711,0,0,0,5.711,31.11h30.8A1.711,1.711,0,0,0,38.221,29.4V25.977A11.991,11.991,0,0,0,26.244,14Z" transform="translate(2.844 9.955)" fill="#fff"/>
  <path id="Path_2609" data-name="Path 2609" d="M6.844,7A1.711,1.711,0,0,0,5.133,8.711v3.422H1.711a1.711,1.711,0,0,0,0,3.422H5.133v3.422a1.711,1.711,0,1,0,3.422,0V15.555h3.422a1.711,1.711,0,1,0,0-3.422H8.555V8.711A1.711,1.711,0,0,0,6.844,7Z" transform="translate(0 4.977)" fill="#fff"/>
</svg>
