<svg xmlns="http://www.w3.org/2000/svg" width="35" height="35" viewBox="0 0 35 35">
  <g id="affiliate-marketing" transform="translate(-2 -2)">
    <path id="Path_2613" data-name="Path 2613" d="M12.5,7a2.5,2.5,0,0,1,2.443,1.976,4.989,4.989,0,0,0-2.26,3.005c-.061,0-.12.019-.182.019a2.5,2.5,0,1,1,0-5Z" transform="translate(2 1.25)" fill="#fff"/>
    <path id="Path_2614" data-name="Path 2614" d="M16.75,16.5a3.75,3.75,0,1,1,3.75-3.75A3.75,3.75,0,0,1,16.75,16.5Z" transform="translate(2.75 1.75)" fill="#fff"/>
    <path id="Path_2615" data-name="Path 2615" d="M17,16a5,5,0,0,1,5,5v3.375a.374.374,0,0,1-.375.375h-9.25A.374.374,0,0,1,12,24.375V21A5,5,0,0,1,17,16Z" transform="translate(2.5 3.5)" fill="#fff"/>
    <path id="Path_2616" data-name="Path 2616" d="M20.577,14.5a5.45,5.45,0,0,1-.16,1.3l6.677-6.677a3.746,3.746,0,1,0-1.766-1.769l-5.137,5.138A5.579,5.579,0,0,1,20.577,14.5ZM28.7,3.875A1.875,1.875,0,1,1,26.827,5.75,1.877,1.877,0,0,1,28.7,3.875Z" transform="translate(4.548 0)" fill="#fff"/>
    <path id="Path_2617" data-name="Path 2617" d="M29.012,13a3.745,3.745,0,0,0-3.52,2.5H19.417a6,6,0,0,1-.465.461A6.94,6.94,0,0,1,21,18h4.491a3.744,3.744,0,1,0,3.52-5Zm0,5.625a1.875,1.875,0,1,1,1.875-1.875A1.877,1.877,0,0,1,29.012,18.625Z" transform="translate(4.238 2.75)" fill="#fff"/>
    <path id="Path_2618" data-name="Path 2618" d="M26.769,25.355,21.5,20.086v3.535l3.5,3.5a3.744,3.744,0,1,0,1.767-1.767ZM28.375,30.6a1.875,1.875,0,1,1,1.875-1.875A1.877,1.877,0,0,1,28.375,30.6Z" transform="translate(4.875 4.522)" fill="#fff"/>
    <path id="Path_2619" data-name="Path 2619" d="M15.852,16a5.719,5.719,0,0,1-.5-.5H9.27a3.75,3.75,0,1,0,0,2.5h4.6A7.134,7.134,0,0,1,15.852,16ZM5.75,18.625A1.875,1.875,0,1,1,7.625,16.75,1.877,1.877,0,0,1,5.75,18.625Z" transform="translate(0 2.75)" fill="#fff"/>
    <path id="Path_2620" data-name="Path 2620" d="M2,28.731a3.744,3.744,0,1,0,7.124-1.606l3.5-3.5V20.289c0-.073.011-.141.014-.214L7.356,25.358A3.738,3.738,0,0,0,2,28.731Zm3.75,1.875a1.875,1.875,0,1,1,1.875-1.875A1.877,1.877,0,0,1,5.75,30.606Z" transform="translate(0 4.519)" fill="#fff"/>
    <path id="Path_2621" data-name="Path 2621" d="M10.125,10.75a4.328,4.328,0,0,1,.466-1.926L9.124,7.356A3.744,3.744,0,1,0,7.356,9.124l3.016,3.016A4.309,4.309,0,0,1,10.125,10.75ZM5.75,7.625A1.875,1.875,0,1,1,7.625,5.75,1.877,1.877,0,0,1,5.75,7.625Z" transform="translate(0 0)" fill="#fff"/>
  </g>
</svg>
