<svg id="dashboard" xmlns="http://www.w3.org/2000/svg" width="35" height="35" viewBox="0 0 35 35">
  <path id="Path_2594" data-name="Path 2594" d="M13.608,0H2.574A2.577,2.577,0,0,0,0,2.574v6.62a2.577,2.577,0,0,0,2.574,2.575H13.608a2.577,2.577,0,0,0,2.575-2.575V2.574A2.577,2.577,0,0,0,13.608,0Zm0,0" transform="translate(0 0)" fill="#009b96"/>
  <path id="Path_2595" data-name="Path 2595" d="M13.608,213.332H2.574A2.577,2.577,0,0,0,0,215.907v15.447a2.577,2.577,0,0,0,2.574,2.574H13.608a2.577,2.577,0,0,0,2.575-2.574V215.907A2.577,2.577,0,0,0,13.608,213.332Zm0,0" transform="translate(0 -198.928)" fill="#009b96"/>
  <path id="Path_2596" data-name="Path 2596" d="M290.94,341.332H279.907a2.577,2.577,0,0,0-2.575,2.575v6.62a2.577,2.577,0,0,0,2.575,2.574H290.94a2.577,2.577,0,0,0,2.574-2.574v-6.62A2.577,2.577,0,0,0,290.94,341.332Zm0,0" transform="translate(-258.515 -318.101)" fill="#009b96"/>
  <path id="Path_2597" data-name="Path 2597" d="M290.94,0H279.907a2.577,2.577,0,0,0-2.575,2.574V18.021a2.577,2.577,0,0,0,2.575,2.575H290.94a2.577,2.577,0,0,0,2.574-2.575V2.574A2.577,2.577,0,0,0,290.94,0Zm0,0" transform="translate(-258.515 0)" fill="#009b96"/>
</svg>
