<svg xmlns="http://www.w3.org/2000/svg" width="31.482" height="36" viewBox="0 0 31.482 36">
  <g id="exchange" transform="translate(-0.001)">
    <path id="Path_2628" data-name="Path 2628" d="M16.567,14.31v1.81a2.75,2.75,0,0,0,.341,1.433,1.621,1.621,0,0,0,1.408.816A2.417,2.417,0,0,0,20,17.543l5.978-5.978a3.37,3.37,0,0,0,0-4.761L20,.826A2.416,2.416,0,0,0,18.316,0c-.871,0-1.75.7-1.75,2.249V3.892A17.757,17.757,0,0,0,.009,19.435a1.055,1.055,0,0,0,1.9.751,14.88,14.88,0,0,1,14.66-5.876Zm0,0" transform="translate(0)" fill="#fff"/>
    <path id="Path_2629" data-name="Path 2629" d="M90.549,218.839a1.054,1.054,0,0,0-1.239.358,14.88,14.88,0,0,1-14.66,5.876v-1.81c0-1.553-.879-2.249-1.75-2.249a2.417,2.417,0,0,0-1.686.826l-5.978,5.978a3.371,3.371,0,0,0,0,4.761l5.978,5.978a2.417,2.417,0,0,0,1.686.826c.871,0,1.75-.7,1.75-2.249v-1.644a17.757,17.757,0,0,0,16.558-15.542A1.054,1.054,0,0,0,90.549,218.839Zm0,0" transform="translate(-59.734 -203.383)" fill="#fff"/>
  </g>
</svg>
