<svg xmlns="http://www.w3.org/2000/svg" width="121.976" height="117.089" viewBox="0 0 121.976 117.089">
  <g id="wallet-filled-money-tool" opacity="0.068">
    <g id="Group_383" data-name="Group 383" transform="translate(0)">
      <path id="Path_2567" data-name="Path 2567" d="M166.157,40.129l48.626-13.273-2.575-5.205a6.852,6.852,0,0,0-9.177-3.1L159.5,40.129Z" transform="translate(-137.653 -17.84)" fill="#2e2e2d"/>
      <path id="Path_2568" data-name="Path 2568" d="M370.119,86.46a6.844,6.844,0,0,0-1.808.247L356.888,89.83,322,99.349h56.858l-2.137-7.835A6.837,6.837,0,0,0,370.119,86.46Z" transform="translate(-277.894 -77.061)" fill="#2e2e2d"/>
      <path id="Path_2569" data-name="Path 2569" d="M108.1,215.56H6.862a6.857,6.857,0,0,0-6.616,5.054A7.089,7.089,0,0,0,0,222.409v76.309a6.851,6.851,0,0,0,6.849,6.849H108.087a6.851,6.851,0,0,0,6.849-6.849V279.609H74.3a11.651,11.651,0,0,1-11.643-11.643V252.735a11.626,11.626,0,0,1,11.629-11.629h40.654v-18.7A6.831,6.831,0,0,0,108.1,215.56Z" transform="translate(0 -188.477)" fill="#2e2e2d"/>
      <path id="Path_2570" data-name="Path 2570" d="M544.7,438.555a6.842,6.842,0,0,0-2.4-1.425,6.982,6.982,0,0,0-2.219-.37H499.249a6.851,6.851,0,0,0-6.849,6.849v15.245a6.851,6.851,0,0,0,6.849,6.849h40.832a6.987,6.987,0,0,0,2.219-.37,6.641,6.641,0,0,0,2.4-1.425,6.825,6.825,0,0,0,2.233-5.054V443.61A6.826,6.826,0,0,0,544.7,438.555Zm-31.148,14.04a3.426,3.426,0,0,1-3.424,3.424h-2.274a3.426,3.426,0,0,1-3.424-3.424v-2.274a3.355,3.355,0,0,1,1.315-2.685,3.46,3.46,0,0,1,2.109-.74h2.274a3.426,3.426,0,0,1,3.424,3.425v2.274Z" transform="translate(-424.953 -379.379)" fill="#2e2e2d"/>
    </g>
  </g>
</svg>
