<svg id="help" xmlns="http://www.w3.org/2000/svg" width="35" height="35" viewBox="0 0 35 35">
  <path id="Path_2626" data-name="Path 2626" d="M220.1,208.785a11.348,11.348,0,0,0-6.223-10.1,15.432,15.432,0,0,1-15.2,15.2,11.317,11.317,0,0,0,15.862,4.651l5.507,1.523-1.523-5.507A11.273,11.273,0,0,0,220.1,208.785Zm0,0" transform="translate(-185.098 -185.098)" fill="#fff"/>
  <path id="Path_2627" data-name="Path 2627" d="M26.729,13.364A13.364,13.364,0,1,0,1.853,20.157l-1.8,6.522,6.522-1.8A13.367,13.367,0,0,0,26.729,13.364Zm-15.415-3.11H9.263a4.1,4.1,0,1,1,6.869,3.027L14.39,14.875v1.6H12.339v-2.5l2.409-2.2a2.03,2.03,0,0,0,.668-1.514,2.051,2.051,0,0,0-4.1,0Zm1.025,8.271H14.39v2.051H12.339Zm0,0" fill="#fff"/>
</svg>
