<svg id="Group_436" data-name="Group 436" xmlns="http://www.w3.org/2000/svg" width="35" height="35" viewBox="0 0 35 35">
  <path id="Path_2610" data-name="Path 2610" d="M17.5,0A17.5,17.5,0,1,0,35,17.5,17.49,17.49,0,0,0,17.5,0Zm1.8,24.447c0,.553-.806,1.106-1.8,1.106-1.037,0-1.774-.553-1.774-1.106V15.67c0-.645.737-1.083,1.774-1.083.991,0,1.8.438,1.8,1.083ZM17.5,12.468a1.8,1.8,0,0,1-1.889-1.659A1.784,1.784,0,0,1,17.5,9.174a1.777,1.777,0,0,1,1.866,1.635A1.8,1.8,0,0,1,17.5,12.468Z" fill="#fff"/>
</svg>
