<svg id="internet" xmlns="http://www.w3.org/2000/svg" width="36" height="36" viewBox="0 0 36 36">
  <g id="Page-1_34_" transform="translate(0)">
    <g id="_x30_35---Internet">
      <path id="Shape_199_" d="M240.155,5.083a16.08,16.08,0,0,1,1.527,4.593,30.147,30.147,0,0,0,3.255-.508A9.578,9.578,0,0,0,240.155,5.083Z" transform="translate(-223.269 -4.726)" fill="#fff"/>
      <path id="Shape_198_" d="M170.962,277.969l.987-2.382-.24-1.173a1.248,1.248,0,0,1-.008-.129h-4.716c.112,1.453.275,2.777.472,3.956.837-.06,1.7-.1,2.573-.1l.662.005Z" transform="translate(-155.244 -254.999)" fill="#fff"/>
      <path id="Shape_197_" d="M170.951,178.614c.031-.752.049-1.531.049-2.327,0-.894-.023-1.745-.059-2.571H164.63c-.035.827-.059,1.678-.059,2.571q0,1.686.084,3.214h5.409Z" transform="translate(-153 -161.501)" fill="#fff"/>
      <path id="Shape_196_" d="M179.389,0c-.74,0-1.668,1.836-2.337,5.057a35.647,35.647,0,0,0,4.674,0C181.06,1.837,180.129,0,179.389,0Z" transform="translate(-164.603)" fill="#fff"/>
      <path id="Shape_195_" d="M169.487,90.128c-.874,0-1.732-.039-2.571-.1a46.26,46.26,0,0,0-.514,4.6h6.171c-.111-1.706-.289-3.25-.514-4.6-.836.06-1.7.1-2.571.1Z" transform="translate(-154.701 -83.7)" fill="#fff"/>
      <path id="Shape_194_" d="M364.857,175.644a1.285,1.285,0,0,1,1.072.579l.66,1,1.041.431c.042-.45.071-.9.071-1.363a14.8,14.8,0,0,0-.228-2.571H363.7q.1.947.129,1.929h1.026Z" transform="translate(-338.129 -161.501)" fill="#fff"/>
      <path id="Shape_193_" d="M295.487,19.98c.542-.145,1.059-.3,1.549-.474a14.809,14.809,0,0,0-3.9-2.463A13.562,13.562,0,0,1,295.487,19.98Z" transform="translate(-272.527 -15.845)" fill="#fff"/>
      <path id="Shape_192_" d="M335.625,66.819a20.121,20.121,0,0,1,1.794,5.633h3.664a14.778,14.778,0,0,0-3.519-6.276C336.96,66.409,336.313,66.625,335.625,66.819Z" transform="translate(-312.026 -61.523)" fill="#fff"/>
      <path id="Shape_191_" d="M73.143,176.286a22.37,22.37,0,0,0,.232,3.214h5c-.056-1.06-.085-2.137-.085-3.214,0-.859.019-1.72.055-2.571H73.292A22.429,22.429,0,0,0,73.143,176.286Z" transform="translate(-68 -161.501)" fill="#fff"/>
      <path id="Shape_190_" d="M273.691,177.984l1.172.24,2.383-.987.659-1a1.285,1.285,0,0,1,.79-.542q-.026-1-.139-1.964h-5.048c.035.852.055,1.712.055,2.571,0,.566-.01,1.12-.026,1.668A1.379,1.379,0,0,1,273.691,177.984Z" transform="translate(-254.277 -161.518)" fill="#fff"/>
      <path id="Shape_189_" d="M265.143,80.416c.24,1.462.413,3.058.518,4.708h4.93a18.655,18.655,0,0,0-1.754-5.317A31.34,31.34,0,0,1,265.143,80.416Z" transform="translate(-246.5 -74.196)" fill="#fff"/>
      <path id="Shape_188_" d="M112.393,9.171a30.217,30.217,0,0,0,3.255.508,16.082,16.082,0,0,1,1.527-4.594A9.578,9.578,0,0,0,112.393,9.171Z" transform="translate(-104.49 -4.727)" fill="#fff"/>
      <path id="Shape_187_" d="M179.39,352.776a.655.655,0,0,0,.07,0,.745.745,0,0,1,.12,0h.03a6.066,6.066,0,0,0,1.11-.149l-.4-.959-1-.659a1.286,1.286,0,0,1-.579-1.073v-2.026a1.3,1.3,0,0,1,.032-.257q-.877.015-1.726.073C177.721,350.94,178.65,352.776,179.39,352.776Z" transform="translate(-164.604 -323.205)" fill="#fff"/>
      <path id="Shape_186_" d="M73.549,361.755c-.542.145-1.059.3-1.549.474a14.809,14.809,0,0,0,3.9,2.463A13.561,13.561,0,0,1,73.549,361.755Z" transform="translate(-66.938 -336.319)" fill="#fff"/>
      <path id="Shape_185_" d="M117.177,354.764a16.08,16.08,0,0,1-1.527-4.593,30.148,30.148,0,0,0-3.255.508A9.578,9.578,0,0,0,117.177,354.764Z" transform="translate(-104.491 -325.55)" fill="#fff"/>
      <path id="Shape_184_" d="M238.6,227.645l-1.137-2.747a.643.643,0,0,1-.036-.375l.279-1.365-1.432-1.432-1.365.279a.636.636,0,0,1-.375-.035l-2.747-1.138a.643.643,0,0,1-.29-.24l-.768-1.162H228.7l-.768,1.162a.643.643,0,0,1-.29.24L224.9,221.97a.634.634,0,0,1-.375.035l-1.365-.279-.136.136-.005,0-1.229,1.227-.005.005-.058.058.279,1.365a.643.643,0,0,1-.035.375l-1.138,2.747a.643.643,0,0,1-.24.29l-1.162.769v2.026l1.162.768a.643.643,0,0,1,.24.29l1.138,2.747a.643.643,0,0,1,.035.375l-.279,1.365,1.432,1.432,1.365-.279a.627.627,0,0,1,.129-.014.65.65,0,0,1,.246.049l2.747,1.138a.643.643,0,0,1,.29.24L228.7,240h2.026l.768-1.162a.643.643,0,0,1,.29-.24l2.747-1.138a.635.635,0,0,1,.375-.035l1.364.279,1.433-1.432-.279-1.365a.643.643,0,0,1,.036-.375l1.137-2.747a.643.643,0,0,1,.24-.29l1.162-.768V228.7l-1.162-.768a.643.643,0,0,1-.24-.29Zm-8.884,9.142a7.071,7.071,0,1,1,7.071-7.071A7.071,7.071,0,0,1,229.717,236.787Z" transform="translate(-204.002 -204.001)" fill="#fff"/>
      <circle id="Oval_27_" cx="5.786" cy="5.786" r="5.786" transform="translate(19.929 19.929)" fill="#fff"/>
      <path id="Shape_183_" d="M77.906,85.126h4.93c.105-1.65.278-3.245.518-4.708a31.381,31.381,0,0,1-3.694-.609A18.653,18.653,0,0,0,77.906,85.126Z" transform="translate(-72.428 -74.197)" fill="#fff"/>
      <path id="Shape_182_" d="M9.993,274.286a14.787,14.787,0,0,0,3.33,5.633c.606-.233,1.252-.45,1.94-.643a19.9,19.9,0,0,1-1.677-4.99Z" transform="translate(-9.29 -255)" fill="#fff"/>
      <path id="Shape_181_" d="M73.549,19.979A13.565,13.565,0,0,1,75.9,17.042,14.81,14.81,0,0,0,72,19.508Q72.734,19.76,73.549,19.979Z" transform="translate(-66.938 -15.844)" fill="#fff"/>
      <path id="Shape_180_" d="M81.293,278.96a31.339,31.339,0,0,1,3.7-.609c-.209-1.272-.367-2.644-.474-4.065H79.662A18.325,18.325,0,0,0,81.293,278.96Z" transform="translate(-74.061 -255)" fill="#fff"/>
      <path id="Shape_179_" d="M7.314,72.452h3.664a20.121,20.121,0,0,1,1.8-5.633c-.689-.193-1.335-.41-1.94-.643A14.778,14.778,0,0,0,7.314,72.452Z" transform="translate(-6.8 -61.523)" fill="#fff"/>
      <path id="Shape_178_" d="M0,176.285A14.759,14.759,0,0,0,.356,179.5H4.077A23.532,23.532,0,0,1,4,173.714H.228A14.8,14.8,0,0,0,0,176.285Z" transform="translate(0 -161.5)" fill="#fff"/>
    </g>
  </g>
</svg>
