<svg xmlns="http://www.w3.org/2000/svg" width="19" height="27.555" viewBox="0 0 19 27.555">
  <path id="Forma_1" data-name="Forma 1" d="M1200,35.581a8.7,8.7,0,0,1,2.695-6.264,9.557,9.557,0,0,1,3.353-2.1,10.065,10.065,0,0,1,6.906,0,9.658,9.658,0,0,1,3.352,2.1,8.713,8.713,0,0,1,2.7,6.264,9.516,9.516,0,0,1-19,0Zm9.44-4.063a2.39,2.39,0,0,0-2.386,2.252,2.358,2.358,0,0,0,.036.453,2.312,2.312,0,0,0,1.11,1.561.624.624,0,0,1,.3.668l-.729,3.258a.323.323,0,0,0,.328.384h2.8a.324.324,0,0,0,.329-.384l-.727-3.258a.615.615,0,0,1,.3-.665,2.306,2.306,0,0,0,1.11-1.561,2.113,2.113,0,0,0,.038-.4,2.386,2.386,0,0,0-2.449-2.313Zm4.282-5.373c-.251-.1-.51-.194-.764-.271v-2.5a3.313,3.313,0,0,0-3.4-3.213h-.1a3.313,3.313,0,0,0-3.4,3.213v2.493c-.258.081-.516.174-.768.274a11.012,11.012,0,0,0-2.586,1.462V23.379a6.582,6.582,0,0,1,6.752-6.38h.1a6.582,6.582,0,0,1,6.755,6.38v4.229A10.988,10.988,0,0,0,1213.721,26.146Z" transform="translate(-1200 -16.999)" fill="#fff"/>
</svg>
