<svg xmlns="http://www.w3.org/2000/svg" width="47.204" height="35.403" viewBox="0 0 47.204 35.403">
  <g id="paragraph" transform="translate(-2 -4.5)">
    <path id="Path_2605" data-name="Path 2605" d="M45.663,4.5H5.54a3.54,3.54,0,0,0,0,7.081H45.663a3.54,3.54,0,0,0,0-7.081Z" transform="translate(0 0)" fill="#fff"/>
    <path id="Path_2606" data-name="Path 2606" d="M38.976,10.5H5.54a3.54,3.54,0,0,0,0,7.081H38.976a3.54,3.54,0,0,0,0-7.081Z" transform="translate(0 8.161)" fill="#fff"/>
    <path id="Path_2607" data-name="Path 2607" d="M25.6,16.5H5.54a3.54,3.54,0,1,0,0,7.081H25.6a3.54,3.54,0,1,0,0-7.081Z" transform="translate(0 16.322)" fill="#fff"/>
  </g>
</svg>
