<svg xmlns="http://www.w3.org/2000/svg" width="49.291" height="49.291" viewBox="0 0 49.291 49.291">
  <g id="Group_955" data-name="Group 955" transform="translate(0)">
    <path id="Path_2659" data-name="Path 2659" d="M47.53,12.323h-8.8V1.76A1.76,1.76,0,0,0,36.968,0H1.76A1.76,1.76,0,0,0,0,1.76V42.249a7.042,7.042,0,0,0,7.042,7.042H42.249a7.042,7.042,0,0,0,7.042-7.042V14.083A1.76,1.76,0,0,0,47.53,12.323ZM14.083,8.8H24.645a1.76,1.76,0,0,1,0,3.521H14.083a1.76,1.76,0,1,1,0-3.521ZM29.927,42.249H8.8a1.76,1.76,0,1,1,0-3.521H29.927a1.76,1.76,0,1,1,0,3.521Zm0-7.042H8.8a1.76,1.76,0,1,1,0-3.521H29.927a1.76,1.76,0,1,1,0,3.521Zm0-7.041H8.8a1.76,1.76,0,0,1,0-3.521H29.927a1.76,1.76,0,0,1,0,3.521Zm0-7.042H8.8a1.76,1.76,0,0,1,0-3.521H29.927a1.76,1.76,0,0,1,0,3.521ZM45.77,42.249a3.521,3.521,0,1,1-7.041,0V15.843H45.77V42.249Z" fill="#fff"/>
  </g>
</svg>
