<svg id="news" xmlns="http://www.w3.org/2000/svg" width="35.039" height="33.093" viewBox="0 0 35.039 33.093">
  <path id="Path_2601" data-name="Path 2601" d="M101.675,0H76.37A.974.974,0,0,0,75.4.973v29.2a4.819,4.819,0,0,1-1,2.92H97.782a4.872,4.872,0,0,0,4.866-4.867V.973A.974.974,0,0,0,101.675,0Zm-5.84,25.306H82.209a.973.973,0,1,1,0-1.946H95.836a.973.973,0,1,1,0,1.946Zm0-5.84H82.209a.973.973,0,1,1,0-1.946H95.836a.973.973,0,1,1,0,1.946Zm0-5.84H82.209a.973.973,0,1,1,0-1.946H95.836a.973.973,0,1,1,0,1.946Zm0-5.84H82.209a.973.973,0,1,1,0-1.946H95.836a.973.973,0,1,1,0,1.946Zm0,0" transform="translate(-67.61)" fill="#009b96"/>
  <path id="Path_2602" data-name="Path 2602" d="M4.866,42.668H.973A.973.973,0,0,0,0,43.641V68.947a2.92,2.92,0,1,0,5.84,0V43.641A.973.973,0,0,0,4.866,42.668Zm0,0" transform="translate(0 -38.775)" fill="#009b96"/>
</svg>
