<svg id="paste" xmlns="http://www.w3.org/2000/svg" width="32.127" height="32.127" viewBox="0 0 32.127 32.127">
  <path id="Path_2663" data-name="Path 2663" d="M25.721,10H14.343A2.343,2.343,0,0,0,12,12.343V26.4a2.343,2.343,0,0,0,2.343,2.343H25.721A2.343,2.343,0,0,0,28.064,26.4V12.343A2.343,2.343,0,0,0,25.721,10ZM22.876,23.386H16.853a1,1,0,1,1,0-2.008h6.024a1,1,0,0,1,0,2.008Zm0-4.016H16.853a1,1,0,1,1,0-2.008h6.024a1,1,0,0,1,0,2.008Z" transform="translate(4.064 3.386)" fill="#2e2e2d"/>
  <path id="Path_2664" data-name="Path 2664" d="M19.076,4.016H17.4V3.681a1,1,0,0,0-1-1H14.921a3.682,3.682,0,0,0-7.084,0H6.359a1,1,0,0,0-1,1v.335H3.681A3.684,3.684,0,0,0,0,7.7V24.43a3.684,3.684,0,0,0,3.681,3.681H14.056V15.729a4.356,4.356,0,0,1,4.351-4.351h4.351V7.7A3.684,3.684,0,0,0,19.076,4.016ZM7.363,4.685H8.7a1,1,0,0,0,1-1,1.673,1.673,0,0,1,3.347,0,1,1,0,0,0,1,1h1.339V6.359a.335.335,0,0,1-.335.335H7.7a.335.335,0,0,1-.335-.335Z" fill="#2e2e2d"/>
</svg>
