<svg id="puzzle" xmlns="http://www.w3.org/2000/svg" width="34.926" height="31.199" viewBox="0 0 34.926 31.199">
  <path id="Path_2603" data-name="Path 2603" d="M249.735,91.1l4.346-4.346L249.735,82.4l.7-.7a3.107,3.107,0,0,0-4.394-4.395l-.7.7-4.346-4.346-1.283,1.283v2.027a5.157,5.157,0,0,1,0,10.033v6.286h-3.763l-.75.75,5.8,5.795,4.346-4.346.6.6a3.107,3.107,0,1,0,4.395-4.395Zm0,0" transform="translate(-219.155 -68.639)" fill="#009b96"/>
  <path id="Path_2604" data-name="Path 2604" d="M18.508,22.606V16.459h.853a3.107,3.107,0,1,0,0-6.215h-.853V4.1H12.361v-.99a3.107,3.107,0,1,0-6.215,0V4.1H0v6.147H.854A3.112,3.112,0,0,1,3.9,12.738a1.052,1.052,0,0,1,0,1.228A3.113,3.113,0,0,1,.854,16.459H0v6.147H6.147v-.99a3.107,3.107,0,0,1,6.215,0v.99Zm0,0" fill="#009b96"/>
</svg>
