<svg xmlns="http://www.w3.org/2000/svg" width="32.795" height="35" viewBox="0 0 32.795 35">
  <g id="resume" transform="translate(-2.25 -0.25)">
    <path id="Path_2622" data-name="Path 2622" d="M51.75,1.275V6.222H56.7Z" transform="translate(-22.217 -0.46)" fill="#fff"/>
    <path id="Path_2623" data-name="Path 2623" d="M24.842,20.75a4,4,0,0,0-3.879,3.031H28.72a4,4,0,0,0-3.879-3.031Z" transform="translate(-8.399 -9.201)" fill="#fff"/>
    <circle id="Ellipse_31" data-name="Ellipse 31" cx="1.791" cy="1.791" r="1.791" transform="translate(14.652 6.037)" fill="#fff"/>
    <path id="Path_2624" data-name="Path 2624" d="M32.159,7.691a.965.965,0,0,1-.965-.965V.25H10.25v35H37.671a.965.965,0,0,0,.965-.965V7.691Zm-14.9,2.618a3.72,3.72,0,1,1,5.54,0,5.93,5.93,0,0,1,3.155,5.236.965.965,0,0,1-.965.965H15.073a.965.965,0,0,1-.965-.965,5.93,5.93,0,0,1,3.155-5.236Zm16.55,19.429H15.073a.965.965,0,0,1,0-1.929h18.74a.965.965,0,0,1,0,1.929Zm0-4.409H15.073a.965.965,0,1,1,0-1.929h18.74a.965.965,0,0,1,0,1.929Zm0-4.409H15.073a.965.965,0,1,1,0-1.929h18.74a.965.965,0,0,1,0,1.929Zm0-4.409H28.852a.965.965,0,0,1,0-1.929h4.961a.965.965,0,0,1,0,1.929Zm0-4.409H28.852a.965.965,0,1,1,0-1.929h4.961a.965.965,0,0,1,0,1.929Z" transform="translate(-3.591)" fill="#fff"/>
    <path id="Path_2625" data-name="Path 2625" d="M4.73.25H3.215a.965.965,0,0,0-.965.965V34.285a.965.965,0,0,0,.965.965H4.73Z" fill="#fff"/>
  </g>
</svg>
