<svg xmlns="http://www.w3.org/2000/svg" width="18.806" height="17.409" viewBox="0 0 18.806 17.409">
  <path id="send_1_" data-name="send (1)" d="M7.85,4.311,18.091,8.919c.734.33,1.346.606,1.8.862a2.755,2.755,0,0,1,1.193,1.111,2.5,2.5,0,0,1,0,2.216,2.755,2.755,0,0,1-1.193,1.111c-.455.256-1.068.532-1.8.862l-10.223,4.6c-.752.339-1.379.621-1.882.8a2.77,2.77,0,0,1-1.647.157,2.5,2.5,0,0,1-1.657-1.5,2.77,2.77,0,0,1-.008-1.654c.123-.518.341-1.17.6-1.952L4.3,12.48a2.808,2.808,0,0,0,.117-.378.5.5,0,0,0,0-.128,2.81,2.81,0,0,0-.116-.379L3.257,8.456c-.259-.781-.475-1.431-.6-1.948a2.768,2.768,0,0,1,.012-1.651,2.5,2.5,0,0,1,1.657-1.5,2.768,2.768,0,0,1,1.644.157c.5.174,1.127.455,1.877.793ZM6.233,13H11.5a1,1,0,0,0,0-2H6.209L6.2,10.964,5.171,7.872c-.278-.839-.465-1.4-.563-1.822a1.662,1.662,0,0,1-.068-.476.5.5,0,0,1,.313-.282,1.662,1.662,0,0,1,.466.116c.407.141.949.384,1.755.747l10.152,4.568c.79.355,1.319.594,1.686.8a1.612,1.612,0,0,1,.387.266.5.5,0,0,1,0,.42,1.618,1.618,0,0,1-.387.266c-.367.207-.9.446-1.686.8L7.092,17.837c-.809.364-1.353.608-1.761.749a1.671,1.671,0,0,1-.468.117.5.5,0,0,1-.313-.283,1.669,1.669,0,0,1,.069-.477c.1-.42.288-.986.57-1.827l1-3,.018-.053L6.233,13Z" transform="translate(-2.539 -3.292)" fill="snow" fill-rule="evenodd"/>
</svg>
