s<svg xmlns="http://www.w3.org/2000/svg" width="31.114" height="29.817" viewBox="0 0 31.114 29.817">
  <g id="settings" transform="translate(0 -10.667)">
    <g id="Group_1024" data-name="Group 1024" transform="translate(0 31.41)">
      <g id="Group_1023" data-name="Group 1023">
        <path id="Path_2665" data-name="Path 2665" d="M29.817,355.241H26.365a4.508,4.508,0,0,0-8.652,0H1.3a1.3,1.3,0,0,0,0,2.593H17.713a4.508,4.508,0,0,0,8.652,0h3.452a1.3,1.3,0,0,0,0-2.593Zm-7.778,3.241a1.945,1.945,0,1,1,1.945-1.945A1.947,1.947,0,0,1,22.039,358.482Z" transform="translate(0 -352)" fill="#fff"/>
      </g>
    </g>
    <g id="Group_1026" data-name="Group 1026" transform="translate(0 10.667)">
      <g id="Group_1025" data-name="Group 1025">
        <path id="Path_2666" data-name="Path 2666" d="M29.817,13.908H26.365a4.508,4.508,0,0,0-8.652,0H1.3a1.3,1.3,0,0,0,0,2.593H17.713a4.508,4.508,0,0,0,8.652,0h3.452a1.3,1.3,0,0,0,0-2.593Zm-7.778,3.241A1.945,1.945,0,1,1,23.984,15.2,1.947,1.947,0,0,1,22.039,17.149Z" transform="translate(0 -10.667)" fill="#fff"/>
      </g>
    </g>
    <g id="Group_1028" data-name="Group 1028" transform="translate(0 21.038)">
      <g id="Group_1027" data-name="Group 1027">
        <path id="Path_2667" data-name="Path 2667" d="M29.817,184.575H13.4a4.508,4.508,0,0,0-8.652,0H1.3a1.3,1.3,0,1,0,0,2.593H4.749a4.508,4.508,0,0,0,8.652,0H29.817a1.3,1.3,0,0,0,0-2.593ZM9.075,187.816a1.945,1.945,0,1,1,1.945-1.945A1.947,1.947,0,0,1,9.075,187.816Z" transform="translate(0 -181.334)" fill="#fff"/>
      </g>
    </g>
  </g>
</svg>
